<?xml version="1.0" standalone="no"?>
<!DOCTYPE svg PUBLIC "-//W3C//DTD SVG 20010904//EN"
 "http://www.w3.org/TR/2001/REC-SVG-20010904/DTD/svg10.dtd">
<svg version="1.0" xmlns="http://www.w3.org/2000/svg"
 width="640.000000pt" height="640.000000pt" viewBox="0 0 640.000000 640.000000"
 preserveAspectRatio="xMidYMid meet">
<metadata>
Created by potrace 1.11, written by Peter Selinger 2001-2013
</metadata>
<g transform="translate(0.000000,640.000000) scale(0.100000,-0.100000)"
fill="#000000" stroke="none">
<path d="M3130 5258 c-121 -32 -233 -82 -279 -124 l-26 -24 240 -1 c132 0 248
-2 257 -4 227 -44 369 -157 449 -360 23 -59 23 -64 26 -486 l2 -425 -540 0
-541 0 4 48 c2 26 0 48 -3 48 -3 0 -4 13 -1 29 l4 29 -82 1 -82 1 4 -30 c3
-17 2 -30 -2 -30 -4 0 -4 -20 0 -45 4 -25 6 -46 6 -46 -1 -1 -23 -3 -50 -5
-27 -2 -51 -5 -53 -8 -3 -3 -5 -50 -5 -105 1 -109 17 -162 56 -183 11 -6 24
-16 28 -22 5 -8 428 -11 1510 -11 l1503 0 33 23 c68 49 66 27 66 632 0 532 -1
547 -23 630 -36 140 -116 261 -231 351 -48 38 -153 91 -205 105 -5 1 -23 6
-40 10 -43 12 -1982 13 -2025 2z"/>
<path d="M2050 4918 c30 -18 57 -35 60 -38 3 -4 12 -9 20 -13 8 -4 33 -18 55
-32 22 -13 53 -32 69 -41 17 -9 84 -50 150 -92 67 -41 128 -75 136 -74 9 0
100 48 203 106 103 58 192 106 197 106 6 0 10 4 10 9 0 5 16 15 35 21 19 6 35
16 35 21 0 5 4 9 9 9 5 0 28 11 52 24 l43 25 -565 0 -564 0 55 -31z"/>
<path d="M1923 4790 c3 -11 2 -20 -1 -20 -6 0 -7 -34 -2 -130 1 -14 1 -81 0
-150 -2 -255 6 -291 72 -325 30 -15 88 -16 570 -16 572 0 561 -1 605 50 26 29
25 27 29 96 4 73 8 227 5 250 -2 22 -2 151 -1 160 1 6 1 15 0 20 -1 6 -2 22
-2 37 1 38 -12 43 -48 18 -16 -11 -43 -29 -60 -40 -16 -11 -31 -20 -34 -20 -2
0 -41 -22 -85 -50 -44 -27 -85 -50 -91 -50 -5 0 -10 -4 -10 -10 0 -5 -7 -10
-15 -10 -8 0 -15 -4 -15 -10 0 -5 -4 -10 -9 -10 -5 0 -57 -30 -117 -66 -139
-84 -169 -87 -275 -21 -43 26 -249 151 -408 247 -87 54 -112 65 -108 50z"/>
<path d="M1139 4643 c-10 -3 -16 -16 -17 -37 -1 -19 -2 -38 -3 -42 -1 -5 -1
-26 0 -46 1 -28 5 -37 19 -37 9 -1 24 -1 32 -2 8 0 65 0 127 1 61 1 116 -1
122 -4 20 -13 26 29 22 146 -1 9 -9 17 -18 17 -10 0 -63 0 -117 1 -55 0 -101
-2 -104 -4 -2 -3 -14 -1 -26 3 -11 4 -28 6 -37 4z"/>
<path d="M1660 4643 c-68 -9 -65 -6 -62 -87 3 -52 8 -76 17 -80 8 -3 17 -1 19
3 3 5 23 6 43 2 61 -10 80 -4 85 29 3 16 0 34 -5 39 -5 5 -5 11 0 14 13 8 3
79 -11 74 -6 -2 -22 -1 -36 2 -14 4 -36 5 -50 4z"/>
<path d="M994 4322 c-35 -7 -36 -14 -33 -144 0 -17 50 -26 121 -20 41 4 48 19
37 85 -4 20 -3 40 2 43 4 2 6 11 3 18 -5 14 -89 25 -130 18z"/>
<path d="M1300 4317 c0 -5 -4 -6 -9 -3 -9 6 -20 -71 -12 -80 3 -3 4 -20 3 -38
-3 -31 -2 -32 39 -35 23 -1 46 -4 51 -7 4 -3 8 -2 8 3 0 4 30 7 67 6 38 -1 68
-2 68 -3 0 -1 24 -2 53 -3 28 -1 52 2 52 6 0 5 4 6 9 3 5 -4 35 -7 66 -7 64
-2 77 9 66 50 -5 14 -4 38 0 53 4 16 3 30 -2 34 -5 3 -7 10 -3 15 3 6 -10 10
-33 9 -21 0 -45 0 -53 1 -8 0 -42 0 -75 0 -33 -1 -113 0 -178 1 -64 2 -117 -1
-117 -5z"/>
<path d="M4158 3315 c-2 -18 -1 -43 3 -56 3 -13 3 -33 -1 -43 -3 -10 -3 -40 0
-67 4 -27 4 -49 1 -49 -5 0 -6 -91 -1 -110 1 -3 1 -39 0 -80 -1 -162 0 -202 5
-211 4 -5 3 -9 -2 -9 -7 0 -8 -25 -3 -135 1 -16 1 -86 1 -155 0 -69 0 -133 0
-143 0 -16 7 -18 40 -15 21 2 39 1 39 -2 0 -3 18 -4 40 -2 38 4 40 6 41 41 1
20 1 39 1 42 -3 25 -4 376 -2 424 2 28 2 31 1 120 -2 162 -2 301 0 345 1 25 1
51 0 58 0 6 -2 27 -3 45 l-3 32 -77 2 -76 1 -4 -33z"/>
<path d="M4479 3322 c-1 -16 -1 -118 1 -127 1 -5 1 -14 0 -20 -1 -5 -1 -39 0
-75 1 -67 1 -90 -4 -125 -1 -11 1 -31 5 -45 3 -14 3 -34 -1 -44 -3 -11 -3 -39
0 -63 4 -24 4 -46 0 -48 -3 -2 -3 -29 0 -59 3 -31 2 -56 -3 -56 -4 0 -6 -4 -3
-8 3 -5 6 -27 7 -49 3 -37 6 -42 31 -45 15 -3 28 -2 28 2 0 4 20 4 45 0 25 -4
45 -6 46 -6 7 9 15 256 8 291 -1 6 -1 13 -1 16 2 14 3 99 2 149 -1 30 -1 60 0
65 1 6 1 37 0 70 -1 89 -1 122 1 131 1 5 1 19 0 31 -1 21 -5 22 -81 22 -44 0
-80 -3 -81 -7z"/>
<path d="M3689 3289 c-8 -4 -10 -74 -8 -221 0 -10 0 -38 0 -63 0 -25 -1 -69 0
-97 0 -29 -1 -111 -2 -181 -1 -70 0 -130 3 -132 2 -3 2 -27 -2 -55 -3 -27 -4
-54 0 -60 3 -5 3 -35 0 -67 -3 -32 -3 -79 0 -105 3 -27 2 -48 -3 -48 -4 0 -5
-5 -2 -10 4 -6 28 -11 53 -10 26 0 60 0 76 0 17 0 31 2 33 4 2 1 3 32 3 67 0
35 -1 73 -1 84 1 11 1 44 1 73 0 30 -2 58 -6 63 -3 5 -2 9 3 9 8 0 9 97 1 106
-3 2 -2 21 2 42 3 20 4 48 0 62 -4 14 -4 36 0 50 3 14 3 42 -1 63 -3 20 -3 39
0 42 4 2 4 29 1 59 -3 31 -4 56 -1 56 5 0 5 97 0 110 -1 3 -1 8 -1 11 2 18 2
98 0 123 -3 29 -3 29 -71 30 -38 1 -73 -2 -78 -5z"/>
</g>
</svg>
